<svg width="1100" height="1100" viewBox="0 0 1100 1100" fill="none" xmlns="http://www.w3.org/2000/svg">
<rect width="1100" height="1100" rx="100" fill="#CB2727"/>
<path d="M934.594 187.38L905.834 166.715L923.789 135.915L890.003 145.905L877.529 112.389L864.158 145.522L830.658 134.531L847.766 165.856L835.746 173.977C795.907 185.155 740.606 213.215 694.625 300.33L653.662 273.668L607.279 347.544C586.804 340.999 564.973 337.609 542.326 338.056C429.908 340.28 340.602 434.846 342.866 549.275C345.129 663.711 438.097 754.666 550.522 752.442C662.947 750.219 752.245 655.659 749.982 541.224C749.071 495.172 733.453 452.935 707.791 419.027L756.876 340.854L710.155 310.439C755.378 223.896 808.479 199.818 846.445 190.439L853.169 191.588L850.113 227.276L876.292 203.342L901.822 228.041L899.734 192.28L934.594 187.38ZM593.908 390.303C592.477 393.57 588.707 395.037 585.515 393.591C520.603 364.261 444.375 394.141 415.6 460.206C414.565 462.578 412.302 464.003 409.91 464.05C409.007 464.068 408.087 463.892 407.207 463.494C403.996 462.042 402.546 458.217 403.971 454.943C435.589 382.357 519.356 349.523 590.671 381.751C593.882 383.21 595.332 387.036 593.908 390.303ZM672.254 302.813L625.865 376.689C624.681 378.585 622.678 379.635 620.623 379.675C619.408 379.699 618.173 379.374 617.077 378.657C614.118 376.727 613.25 372.728 615.144 369.711L661.527 295.835C663.421 292.824 667.355 291.937 670.314 293.873C673.274 295.797 674.142 299.796 672.254 302.813ZM876.46 190.622L861.277 204.5L862.776 186.968C865.192 186.518 867.513 186.11 869.713 185.723C872.453 185.241 875.002 184.795 877.367 184.334L873.955 165.966C871.679 166.4 869.219 166.837 866.587 167.297C864.424 167.677 862.129 168.085 859.725 168.521L849.986 150.693L869.426 157.064L877.18 137.854L884.405 157.286L904.019 151.496L893.598 169.36L910.286 181.351L890.054 184.2L891.266 204.95L876.46 190.622Z" fill="white"/>
<path d="M996.721 293.169C822.653 293.169 788.806 104.507 788.806 104.507C675.497 84.924 550.505 87.0693 550.505 87.0693C550.505 87.0693 425.524 84.924 312.204 104.507C312.204 104.507 278.345 293.169 104.278 293.169C104.278 293.169 24.8518 801.251 550.505 1040C1076.16 801.251 996.721 293.169 996.721 293.169ZM557.441 959.522L550.493 962.678L543.523 959.522C115.096 764.904 174.978 347.843 175.668 343.654L177.446 332.264H190.592C316.614 332.264 343.14 192.647 343.42 191.238L345.034 182.156L355.373 180.338C430.425 167.374 510.482 166.015 541.417 166.015C546.961 166.015 550.224 166.056 550.716 166.056C550.751 166.056 554.025 166.015 559.569 166.015C590.516 166.015 670.527 167.384 745.613 180.338L755.929 182.156L757.59 191.238C758.654 196.979 784.747 332.264 910.406 332.264H923.564L925.33 343.654C925.997 347.843 985.902 764.904 557.441 959.522Z" fill="white"/>
<path d="M941.663 313.052C789.079 313.052 759.409 147.675 759.409 147.675C660.085 130.508 550.519 132.389 550.519 132.389C550.519 132.389 440.964 130.508 341.629 147.675C341.629 147.675 311.949 313.052 159.365 313.052C159.365 313.052 89.7418 758.427 550.519 967.71C1011.3 758.427 941.663 313.052 941.663 313.052ZM556.599 897.164L550.509 899.931L544.399 897.164C168.848 726.566 221.34 360.978 221.945 357.306L223.503 347.322H235.026C345.495 347.322 368.747 224.937 368.993 223.701L370.408 215.74L379.471 214.146C445.259 202.782 515.436 201.591 542.553 201.591C547.413 201.591 550.273 201.627 550.704 201.627C550.734 201.627 553.605 201.591 558.465 201.591C585.592 201.591 655.728 202.791 721.547 214.146L730.59 215.74L732.046 223.701C732.979 228.733 755.851 347.322 866.002 347.322H877.536L879.084 357.306C879.668 360.978 932.18 726.566 556.599 897.164Z" fill="white"/>
</svg>
