<svg width="792" height="782" viewBox="0 0 792 782" fill="none" xmlns="http://www.w3.org/2000/svg">
<path d="M353.333 2.13329C278.933 11.7333 211.6 38.2666 155.6 80.4C136.266 94.9333 99.8662 130.667 84.2662 150.267C39.4662 207.067 12.5329 270.133 4.79954 336.533C-0.800458 384 1.59954 428.667 12.1329 473.333C23.1995 520.133 40.2662 560.267 65.8662 599.333C81.4662 622.933 94.1329 637.867 121.466 664.8C144 686.8 157.466 697.6 184 715.067C250.133 758.533 332.133 782 408.666 779.6C480.266 777.2 551.733 754.4 612.666 714.533C654 687.467 683.866 658.667 718 613.2C768.533 545.733 792.933 465.467 790.133 376C789.733 361.733 788.4 343.733 787.333 336C779.466 283.2 756.666 223.333 728.8 182.133C698.4 137.333 691.333 128.667 668.8 107.067C621.733 62.2666 559.6 28.8 492.666 12.1333C458.133 3.59996 448.533 2.53329 401.333 1.99996C377.466 1.73329 355.866 1.86663 353.333 2.13329ZM418.666 144C448.933 146.133 477.466 154.133 508 168.8C558.4 193.067 593.6 227.6 618 276.667C628.8 298.4 636.666 320.667 641.466 342.667C645.866 363.867 646.666 404 642.933 426.133C637.466 458.133 621.6 497.333 605.733 518.533C568.533 568 505.466 607.6 444.133 620C398.8 629.2 341.333 624.533 300.666 608.4C245.866 586.667 206.4 553.867 170.266 500C159.6 484.267 157.2 478.667 152.533 459.2C147.066 436.4 145.466 424.933 144.533 401.6C143.6 375.733 145.066 358.933 150 336.667C155.2 313.733 160.266 298.933 170.133 279.2C180.666 257.867 188.133 246.4 202 230.533C236.933 190.533 277.466 165.2 328.666 151.867C362.133 143.2 382.666 141.333 418.666 144Z" fill="url(#paint0_linear_1067_173)"/>
<path d="M377.734 239.333C364.267 242.267 352.534 248.8 341.734 259.467C311.334 289.333 311.334 336.133 341.734 365.867C347.067 371.067 354.4 376.8 358.267 378.667C362.134 380.533 365.2 382.533 365.334 383.2C365.334 384.133 325.067 531.2 321.867 541.6C321.2 543.867 325.467 544 397.334 544C469.2 544 473.467 543.867 472.8 541.6C471.2 536 430.667 379.467 430.667 378.667C430.667 378.133 432.134 377.067 433.734 376.4C435.467 375.6 440.4 371.6 444.8 367.6C476 338.667 476.934 289.733 446.8 260C428 241.333 402.934 233.867 377.734 239.333Z" fill="url(#paint1_linear_1067_173)"/>
<defs>
<linearGradient id="paint0_linear_1067_173" x1="691" y1="780" x2="132.5" y2="1.99998" gradientUnits="userSpaceOnUse">
<stop stop-color="#2B2C2E"/>
<stop offset="0.520167" stop-color="#C20609"/>
<stop offset="1" stop-color="#FF3239"/>
</linearGradient>
<linearGradient id="paint1_linear_1067_173" x1="659.5" y1="673.5" x2="165" y2="120.5" gradientUnits="userSpaceOnUse">
<stop stop-color="#FD3134"/>
<stop offset="0.5" stop-color="#D20F13"/>
<stop offset="1" stop-color="#666666"/>
</linearGradient>
</defs>
</svg>
