<?xml version="1.0" standalone="no"?>
<!DOCTYPE svg PUBLIC "-//W3C//DTD SVG 20010904//EN"
 "http://www.w3.org/TR/2001/REC-SVG-20010904/DTD/svg10.dtd">
<svg version="1.0" xmlns="http://www.w3.org/2000/svg"
 width="594.000000pt" height="586.000000pt" viewBox="0 0 594.000000 586.000000"
 preserveAspectRatio="xMidYMid meet">

<g transform="translate(0.000000,586.000000) scale(0.100000,-0.100000)"
fill="#000000" stroke="none">
<path d="M2650 5844 c-558 -72 -1063 -271 -1483 -587 -145 -109 -418 -377
-535 -524 -336 -426 -538 -899 -596 -1397 -42 -356 -24 -691 55 -1026 83 -351
211 -652 403 -945 117 -177 212 -289 417 -491 169 -165 270 -246 469 -377 496
-326 1111 -502 1685 -484 537 18 1073 189 1530 488 310 203 534 419 790 760
379 506 562 1108 541 1779 -3 107 -13 242 -21 300 -59 396 -230 845 -439 1154
-228 336 -281 401 -450 563 -353 336 -819 587 -1321 712 -259 64 -331 72 -685
76 -179 2 -341 1 -360 -1z m490 -1064 c227 -16 441 -76 670 -186 378 -182 642
-441 825 -809 81 -163 140 -330 176 -495 33 -159 39 -460 11 -626 -41 -240
-160 -534 -279 -693 -279 -371 -752 -668 -1212 -761 -340 -69 -771 -34 -1076
87 -411 163 -707 409 -978 813 -80 118 -98 160 -133 306 -41 171 -53 257 -60
432 -7 194 4 320 41 487 39 172 77 283 151 431 79 160 135 246 239 365 262
300 566 490 950 590 251 65 405 79 675 59z"/>
<path d="M2833 4065 c-101 -22 -189 -71 -270 -151 -228 -224 -228 -575 0 -798
40 -39 95 -82 124 -96 29 -14 52 -29 53 -34 0 -7 -302 -1110 -326 -1188 -5
-17 27 -18 566 -18 539 0 571 1 566 18 -12 42 -316 1216 -316 1222 0 4 11 12
23 17 13 6 50 36 83 66 234 217 241 584 15 807 -141 140 -329 196 -518 155z"/>
</g>
</svg>
