<svg width="1000" height="1000" viewBox="0 0 1000 1000" fill="none" xmlns="http://www.w3.org/2000/svg">
<path d="M938.656 86.803L905.847 63.2283L926.329 28.0913L887.787 39.4875L873.556 1.25351L858.303 39.0508L820.086 26.5125L839.603 62.2476L825.891 71.5121C780.442 84.2642 717.355 116.275 664.9 215.656L618.17 185.24L565.257 269.517C541.899 262.05 516.994 258.183 491.159 258.694C362.912 261.23 261.033 369.111 263.615 499.651C266.197 630.2 372.254 733.96 500.508 731.424C628.762 728.887 730.634 621.014 728.052 490.466C727.013 437.931 709.195 389.747 679.92 351.064L735.916 261.886L682.618 227.188C734.207 128.46 794.785 100.992 838.096 90.292L845.767 91.6035L842.281 132.316L872.146 105.011L901.271 133.189L898.888 92.3929L938.656 86.803ZM550.003 318.296C548.37 322.023 544.069 323.697 540.428 322.047C466.376 288.588 379.416 322.675 346.589 398.042C345.409 400.748 342.827 402.373 340.099 402.427C339.068 402.447 338.019 402.246 337.015 401.793C333.353 400.136 331.698 395.772 333.323 392.038C369.393 309.231 464.955 271.775 546.31 308.541C549.973 310.205 551.628 314.569 550.003 318.296ZM639.38 218.488L586.46 302.766C585.108 304.928 582.823 306.126 580.479 306.172C579.093 306.2 577.685 305.829 576.435 305.011C573.059 302.809 572.068 298.247 574.229 294.805L627.142 210.528C629.303 207.093 633.791 206.081 637.167 208.29C640.543 210.484 641.533 215.046 639.38 218.488ZM872.338 90.5015L855.017 106.333L856.726 86.3321C859.482 85.8194 862.13 85.3532 864.641 84.9119C867.766 84.3624 870.674 83.8541 873.372 83.3278L869.48 62.3735C866.884 62.8683 864.077 63.3672 861.074 63.8921C858.607 64.3252 855.988 64.7908 853.246 65.2884L842.136 44.9498L864.313 52.2187L873.158 30.3031L881.401 52.472L903.776 45.8664L891.888 66.246L910.925 79.9248L887.845 83.1746L889.228 106.846L872.338 90.5015Z" fill="#A8A8A8"/>
<path d="M946.721 242.169C772.653 242.169 738.806 53.5073 738.806 53.5073C625.497 33.924 500.505 36.0693 500.505 36.0693C500.505 36.0693 375.524 33.924 262.204 53.5073C262.204 53.5073 228.345 242.169 54.2775 242.169C54.2775 242.169 -25.1482 750.251 500.505 989C1026.16 750.251 946.721 242.169 946.721 242.169ZM507.441 908.522L500.493 911.678L493.523 908.522C65.0961 713.904 124.978 296.843 125.668 292.654L127.446 281.264H140.592C266.614 281.264 293.14 141.647 293.42 140.238L295.034 131.156L305.373 129.338C380.425 116.374 460.482 115.015 491.417 115.015C496.961 115.015 500.224 115.056 500.716 115.056C500.751 115.056 504.025 115.015 509.569 115.015C540.516 115.015 620.527 116.384 695.613 129.338L705.929 131.156L707.59 140.238C708.654 145.979 734.747 281.264 860.406 281.264H873.564L875.33 292.654C875.997 296.843 935.902 713.904 507.441 908.522Z" fill="#A8A8A8"/>
<path d="M946.721 230.169C772.653 230.169 738.806 41.5073 738.806 41.5073C625.497 21.924 500.505 24.0693 500.505 24.0693C500.505 24.0693 375.524 21.924 262.204 41.5073C262.204 41.5073 228.345 230.169 54.2775 230.169C54.2775 230.169 -25.1482 738.251 500.505 977C1026.16 738.251 946.721 230.169 946.721 230.169ZM507.441 896.522L500.493 899.678L493.523 896.522C65.0961 701.904 124.978 284.843 125.668 280.654L127.446 269.264H140.592C266.614 269.264 293.14 129.647 293.42 128.238L295.034 119.156L305.373 117.338C380.425 104.374 460.482 103.015 491.417 103.015C496.961 103.015 500.224 103.056 500.716 103.056C500.751 103.056 504.025 103.015 509.569 103.015C540.516 103.015 620.527 104.384 695.613 117.338L705.929 119.156L707.59 128.238C708.654 133.979 734.747 269.264 860.406 269.264H873.564L875.33 280.654C875.997 284.843 935.902 701.904 507.441 896.522Z" fill="#A8A8A8"/>
</svg>
